Coordinates
version=1
nRows=8
nColumns=40
inDegrees=yes

Units are S.I. units (second, meters, Newtons, ...)
Angles are in degrees.

endheader
time	pelvis_tilt	pelvis_list	pelvis_rotation	pelvis_tx	pelvis_ty	pelvis_tz	hip_flexion_r	hip_adduction_r	hip_rotation_r	knee_angle_r	knee_angle_r_beta	ankle_angle_r	subtalar_angle_r	mtp_angle_r	hip_flexion_l	hip_adduction_l	hip_rotation_l	knee_angle_l	knee_angle_l_beta	ankle_angle_l	subtalar_angle_l	mtp_angle_l	lumbar_extension	lumbar_bending	lumbar_rotation	arm_flex_r	arm_add_r	arm_rot_r	elbow_flex_r	pro_sup_r	wrist_flex_r	wrist_dev_r	arm_flex_l	arm_add_l	arm_rot_l	elbow_flex_l	pro_sup_l	wrist_flex_l	wrist_dev_l
      1.03000000	     -3.26314181	      1.98529200	      1.98343282	      0.16880684	      0.93173527	      0.97626293	     28.42273489	     -8.69254241	    -22.81478211	    -16.12265043	     -0.28139333	     -1.12053812	      2.36468551	      0.87516625	     -9.50036037	     -0.39636276	     13.01773137	    -14.81413418	     -0.25855542	      8.09210336	     -2.55792339	    -14.72271197	     -0.96589510	     -1.12223814	    -10.37587073	     -7.24986329	    -10.68607182	    -25.01826211	     13.45442386	     89.95437384	      0.00000000	      0.00000000	     19.39102334	     18.83726024	      5.24601997	     47.95812930	     89.95437384	      0.00000000	      0.00000000
      1.04000000	     -2.97953308	      1.77748030	      2.14250767	      0.18031884	      0.93108452	      0.97870313	     28.02917072	     -8.53910685	    -23.05473111	    -17.23092813	     -0.30073643	     -2.53338436	      1.53157006	      1.07542457	    -10.23788152	      0.15735157	     13.02527279	    -15.41725109	     -0.26908179	      7.92113697	     -2.43739678	    -14.50657416	     -1.06449425	     -0.91034579	    -10.40456866	     -7.36609222	    -10.69312549	    -25.15814065	     13.19183832	     89.95437384	      0.00000000	      0.00000000	     18.52826393	     18.51135465	      5.52930583	     47.52817012	     89.95437384	      0.00000000	      0.00000000
      1.05000000	     -2.29848268	      0.88163573	      2.47775563	      0.19187330	      0.93168755	      0.98145212	     26.65519802	     -7.45755695	    -23.37031802	    -16.83717886	     -0.29386421	     -5.36924519	     -1.12198555	      1.44265777	    -11.26856585	      1.64080732	     13.07201897	    -16.21956101	     -0.28308474	      7.29275556	     -2.88873245	    -14.65302555	     -1.65482598	      0.08601675	    -10.54340826	     -7.30060401	    -10.69501633	    -25.88410567	     12.91210789	     89.95437384	      0.00000000	      0.00000000	     17.71799951	     17.89187588	      6.23821326	     46.97395623	     89.95437384	      0.00000000	      0.00000000
      1.06000000	     -2.17533290	      0.50777618	      2.37596383	      0.20307701	      0.93133649	      0.98476091	     26.63161503	     -7.10904346	    -22.88057975	    -18.01897210	     -0.31449039	     -6.21122141	     -1.56200503	      1.35588692	    -11.66635795	      2.41218016	     13.36341728	    -17.08535134	     -0.29819563	      6.91329849	     -2.79264462	    -14.44092070	     -1.57896090	      0.43570699	    -10.20613111	     -7.32361051	    -10.71251812	    -25.90508468	     12.53896492	     89.95437384	      0.00000000	      0.00000000	     16.98627122	     17.41906566	      6.49065461	     45.96517739	     89.95437384	      0.00000000	      0.00000000
      1.07000000	     -2.08168007	     -0.35154322	      2.30356837	      0.21424127	      0.93120103	      0.98858833	     26.57257101	     -6.04905849	    -22.16563354	    -19.08900827	     -0.33316605	     -7.11678974	     -3.36380412	      0.21364241	    -11.73419588	      4.02731107	     14.59102025	    -18.57406698	     -0.32417862	      6.06981161	     -4.45488587	    -14.89524018	     -1.49608611	      1.32607500	     -9.94974575	     -7.29399888	    -10.69463209	    -26.16450187	     12.34925984	     89.95437384	      0.00000000	      0.00000000	     16.08053921	     16.86887663	      6.95240904	     45.01947139	     89.95437384	      0.00000000	      0.00000000
      1.08000000	     -2.01351381	     -0.67064617	      2.17082345	      0.22548214	      0.93137446	      0.99181936	     26.75411849	     -5.68930844	    -21.63057947	    -20.93841190	     -0.36544423	     -6.73702959	     -3.69331193	     -0.03318466	    -11.93235260	      4.69320493	     14.46714540	    -19.67864679	     -0.34345718	      5.35013035	     -3.82481809	    -14.42516679	     -1.37926847	      1.64445960	     -9.64111142	     -7.27638628	    -10.71811014	    -25.84256265	     12.14150959	     89.95437384	      0.00000000	      0.00000000	     15.17372015	     16.28903764	      7.47354317	     43.80780913	     89.95437384	      0.00000000	      0.00000000
      1.09000000	     -1.93199012	     -0.92026916	      2.04875191	      0.23660769	      0.93174994	      0.99524844	     26.85908235	     -5.22384668	    -20.65202678	    -22.60118757	     -0.39446514	     -6.47929122	     -3.71236145	     -0.16999353	    -12.01325811	      5.28887799	     14.07303682	    -20.94233324	     -0.36551267	      4.50566094	     -3.25714080	    -13.85601806	     -1.31133532	      1.84219635	     -9.34640851	     -7.29840416	    -10.67296109	    -25.51401404	     12.14937077	     89.95437384	      0.00000000	      0.00000000	     14.17122777	     15.85445309	      7.78275522	     42.75901833	     89.95437384	      0.00000000	      0.00000000
      1.10000000	     -1.80371556	     -1.16187588	      1.78720234	      0.24816619	      0.93242117	      0.99883048	     26.79347450	     -4.62837735	    -19.67795481	    -24.00725078	     -0.41900557	     -5.76511447	     -4.02426762	     -0.36829638	    -12.02482082	      5.91696575	     14.10455016	    -22.49310850	     -0.39257880	      3.33972819	     -2.48730994	    -13.26175496	     -1.21904361	      2.03915963	     -8.95510227	     -7.10463116	    -10.68908521	    -25.10396608	     11.77032110	     89.95437384	      0.00000000	      0.00000000	     13.14477232	     15.31536309	      8.29134453	     41.29567241	     89.95437384	      0.00000000	      0.00000000
